<svg width="30" height="30" viewBox="0 0 30 30" fill="none" xmlns="http://www.w3.org/2000/svg">
<path fill-rule="evenodd" clip-rule="evenodd" d="M5 13.75C5 8.91751 8.91751 5 13.75 5C18.5825 5 22.5 8.91751 22.5 13.75C22.5 16.1075 21.5676 18.2473 20.0515 19.8207C20.0088 19.8535 19.9678 19.8895 19.9286 19.9286C19.8895 19.9678 19.8535 20.0088 19.8207 20.0515C18.2473 21.5676 16.1075 22.5 13.75 22.5C8.91751 22.5 5 18.5825 5 13.75ZM20.7721 22.5399C18.8475 24.0794 16.4063 25 13.75 25C7.5368 25 2.5 19.9632 2.5 13.75C2.5 7.5368 7.5368 2.5 13.75 2.5C19.9632 2.5 25 7.5368 25 13.75C25 16.4063 24.0794 18.8475 22.5399 20.7721L27.1339 25.3661C27.6221 25.8543 27.6221 26.6458 27.1339 27.1339C26.6458 27.6221 25.8543 27.6221 25.3661 27.1339L20.7721 22.5399Z" fill="white"/>
</svg>
